<svg xmlns="http://www.w3.org/2000/svg" viewBox="0 0 756.51517 320.24302"><defs><style>.cls-1{fill:#47adc9;}.cls-2{fill:#3f97bc;}.cls-3{fill:#42a0c1;}.cls-4{fill:#4379a9;}.cls-5{font-size:185.7476px;font-family:BrandingW00-Bold;font-weight:700;}.cls-5,.cls-8{fill:#7f7f7f;}.cls-6{letter-spacing:-0.008em;}.cls-7{letter-spacing:-0.00001em;}.cls-8{font-size:41.8364px;font-family:BrandingSF-SemiLight, Branding SF;font-weight:300;}.cls-9{letter-spacing:-0.01298em;}</style></defs><g id="Camada_5" data-name="Camada 5"><polygon class="cls-1" points="221.616 186.227 128.129 125.647 155.801 104.706 221.616 145.092 221.616 186.227"/><path class="cls-2" d="M128.445.18477l93.171,54.41189V98.72272L128.12857,42.63027V0Z"/><polygon class="cls-3" points="221.616 145.092 221.616 186.227 257.515 208.664 257.515 76.286 221.616 54.597 221.616 98.723 221.616 145.092"/><polygon class="cls-4" points="34.641 86.756 35.455 86.372 128.129 42.63 128.129 0 35.015 48.053 34.641 86.756"/><path class="cls-4" d="M34.64114,48.23951,1.35962,65.81515V86.75633s32.15968,22.437,32.90757,22.437S34.64114,48.23951,34.64114,48.23951Z"/><polygon class="cls-4" points="30.46 50.389 36.511 47.325 35.839 85.649 32.805 86.382 30.46 50.389"/><polygon class="cls-1" points="35.951 134.233 129.578 194.596 101.954 215.601 36.046 175.367 35.951 134.233"/><path class="cls-2" d="M129.55161,320.0589l.31695.18412L129.77,277.61287,36.1532,221.73665l.102,44.12595Z"/><polygon class="cls-3" points="36.046 175.367 35.951 134.233 0 111.879 0.306 244.257 36.255 265.863 36.153 221.737 36.046 175.367"/><polygon class="cls-4" points="223.155 233.271 222.342 233.657 129.77 277.613 129.869 320.243 222.871 271.975 223.155 233.271"/><path class="cls-4" d="M223.24424,271.78755,256.48505,254.135l-.04841-20.94113S224.22519,210.83131,223.4773,210.833,223.24424,271.78755,223.24424,271.78755Z"/><polygon class="cls-4" points="227.421 269.628 221.377 272.706 221.959 234.381 224.992 233.641 227.421 269.628"/><text class="cls-5" transform="translate(276.36527 227.0332)">Sha<tspan class="cls-6" x="305.92139" y="0">r</tspan><tspan class="cls-7" x="374.27588" y="0">p</tspan></text><text class="cls-8" transform="translate(434.22708 308.40625)">Solu<tspan class="cls-9" x="78.3584" y="0">ç</tspan><tspan x="98.06348" y="0">ões Digitais</tspan></text></g></svg>